<svg id="Layer_1" data-name="Layer 1" xmlns="http://www.w3.org/2000/svg" viewBox="0 0 236.64 52.79"><defs><style>.cls-1{fill:#f8ff22;}</style></defs><g id="logo-youtube"><g id="g7433"><path id="path7429" d="M1523.7,718.47a9.45,9.45,0,0,0-6.64-6.65c-5.9-1.61-29.51-1.61-29.51-1.61s-23.6,0-29.5,1.55a9.63,9.63,0,0,0-6.64,6.71c-1.56,5.9-1.56,18.13-1.56,18.13s0,12.3,1.56,18.14a9.45,9.45,0,0,0,6.64,6.65c6,1.61,29.5,1.61,29.5,1.61s23.61,0,29.51-1.55a9.45,9.45,0,0,0,6.64-6.65c1.56-5.9,1.56-18.13,1.56-18.13s.06-12.3-1.56-18.2Z" transform="translate(-1449.85 -710.21)"/><path id="polygon7431" class="cls-1" d="M1480,725.3v22.61l19.63-11.31Z" transform="translate(-1449.85 -710.21)"/></g><g id="g7451"><g id="g7449"><path id="path7435" d="M1559.35,758.28a8,8,0,0,1-3.16-4.72,31.13,31.13,0,0,1-.94-8.45v-4.78a29.28,29.28,0,0,1,1.06-8.57,8.84,8.84,0,0,1,3.35-4.72,10.93,10.93,0,0,1,6-1.49,10.47,10.47,0,0,1,5.9,1.49,8.6,8.6,0,0,1,3.23,4.72,28.72,28.72,0,0,1,1.06,8.57v4.78a29.09,29.09,0,0,1-1,8.51,8.6,8.6,0,0,1-3.23,4.72,10.85,10.85,0,0,1-6.09,1.49,11.77,11.77,0,0,1-6.21-1.55Zm8.39-5.22a15.58,15.58,0,0,0,.62-5.28V737.47a15.62,15.62,0,0,0-.62-5.21,2.23,2.23,0,0,0-4.29,0,15.62,15.62,0,0,0-.62,5.21v10.31a15.58,15.58,0,0,0,.62,5.28,2.19,2.19,0,0,0,2.18,1.62A2.15,2.15,0,0,0,1567.74,753.06Z" transform="translate(-1449.85 -710.21)"/><path id="path7437" d="M1674,745.17v1.68a43.17,43.17,0,0,0,.19,4.78,4,4,0,0,0,.8,2.3,2.2,2.2,0,0,0,1.87.75,2.35,2.35,0,0,0,2.3-1.31,11.46,11.46,0,0,0,.68-4.34l6.4.37a6.61,6.61,0,0,1,.06,1.18c0,3-.81,5.34-2.49,6.83s-4,2.24-7.08,2.24c-3.66,0-6.21-1.18-7.7-3.48s-2.23-5.84-2.23-10.69v-5.77c0-5,.74-8.57,2.29-10.87s4.16-3.42,7.83-3.42a10.49,10.49,0,0,1,5.9,1.43,7.58,7.58,0,0,1,2.86,4.35,31.82,31.82,0,0,1,.8,8.2v5.65H1674Zm.93-13.91a4.74,4.74,0,0,0-.74,2.3,43.81,43.81,0,0,0-.19,4.84v2.36h5.47V738.4a48.15,48.15,0,0,0-.19-4.84,4.26,4.26,0,0,0-.81-2.3,2.25,2.25,0,0,0-1.74-.68,1.88,1.88,0,0,0-1.8.68Z" transform="translate(-1449.85 -710.21)"/><path id="path7439" d="M1541.22,744.55l-8.45-30.62h7.39l3,13.85q1.13,5.13,1.68,8.76h.19c.24-1.74.8-4.6,1.67-8.69l3.11-13.92h7.39l-8.57,30.62v14.66h-7.33V744.55Z" transform="translate(-1449.85 -710.21)"/><path id="path7441" d="M1599.91,726.17v33.1h-5.84l-.62-4h-.18a7.66,7.66,0,0,1-7.15,4.59,5.63,5.63,0,0,1-4.84-2.17c-1.06-1.43-1.55-3.67-1.55-6.77V726.17h7.45v24.28a7.58,7.58,0,0,0,.5,3.17,1.67,1.67,0,0,0,1.61.93,3.14,3.14,0,0,0,1.86-.62,3,3,0,0,0,1.31-1.49V726.17Z" transform="translate(-1449.85 -710.21)"/><path id="path7443" d="M1638.11,726.17v33.1h-5.84l-.62-4h-.19a7.64,7.64,0,0,1-7.14,4.59,5.63,5.63,0,0,1-4.84-2.17c-1.06-1.43-1.56-3.67-1.56-6.77V726.17h7.46v24.28a7.61,7.61,0,0,0,.49,3.17,1.68,1.68,0,0,0,1.62.93,3.14,3.14,0,0,0,1.86-.62,3,3,0,0,0,1.31-1.49V726.17Z" transform="translate(-1449.85 -710.21)"/><path id="path7445" d="M1620.16,720h-7.39v39.25h-7.27V720h-7.39v-6h22.05Z" transform="translate(-1449.85 -710.21)"/><path id="path7447" d="M1662.77,731.45a8.43,8.43,0,0,0-2.18-4.54,5.92,5.92,0,0,0-4.16-1.42,6.69,6.69,0,0,0-3.85,1.18,7.55,7.55,0,0,0-2.73,3h-.06V712.26h-7.21v47h6.15l.75-3.1h.18a6.44,6.44,0,0,0,2.61,2.67,8.07,8.07,0,0,0,3.85,1,5.82,5.82,0,0,0,5.53-3.48c1.18-2.3,1.8-6,1.8-10.87v-5.21a50.12,50.12,0,0,0-.68-8.76Zm-6.83,13.48a44.18,44.18,0,0,1-.31,5.65,6.33,6.33,0,0,1-1,2.92,2.42,2.42,0,0,1-1.86.87,3.1,3.1,0,0,1-1.68-.44,3.53,3.53,0,0,1-1.24-1.3V733.87a5.16,5.16,0,0,1,1.3-2.24,3.07,3.07,0,0,1,2-.87,2,2,0,0,1,1.74.87,7.3,7.3,0,0,1,.87,3,49.06,49.06,0,0,1,.25,6v4.35Z" transform="translate(-1449.85 -710.21)"/></g></g></g></svg>