<svg id="Layer_1" data-name="Layer 1" xmlns="http://www.w3.org/2000/svg" viewBox="0 0 37.85 37.85"><defs><style>.cls-1{fill:#191b26;fill-rule:evenodd;}.cls-2{fill:#fff;}</style></defs><path class="cls-1" d="M38.63,2.51a2,2,0,0,0-2-2H2.77a2,2,0,0,0-2,2V36.37a2,2,0,0,0,2,2H36.64a2,2,0,0,0,2-2V2.51Z" transform="translate(-0.78 -0.52)"/><path class="cls-2" d="M13,9a7.11,7.11,0,0,0-5.1,2.17,7.55,7.55,0,0,0-2.1,5.27V29.91H8.65v-6H13a7.15,7.15,0,0,0,5.11-2.19,7.62,7.62,0,0,0,0-10.55A7.13,7.13,0,0,0,13,9ZM8.65,21V16.47a4.52,4.52,0,0,1,1.27-3.18A4.27,4.27,0,0,1,13,12a4.34,4.34,0,0,1,3.1,1.31,4.64,4.64,0,0,1,0,6.38A4.3,4.3,0,0,1,13,21Z" transform="translate(-0.78 -0.52)"/><path class="cls-2" d="M26,18.37h.1l4,5.54h3.51l-5.47-7.67L33,9H29.5l-3.4,5.11H26L22.6,9H19.09l4.85,7.24-5.47,7.67H22Z" transform="translate(-0.78 -0.52)"/></svg>