<svg id="Layer_1" data-name="Layer 1" xmlns="http://www.w3.org/2000/svg" viewBox="0 0 225.06 55.73"><defs><style>.cls-1{fill-rule:evenodd;}</style></defs><g id="logo-github"><path d="M373.71,753.21h-.08s0,0,.08,0h0Zm0,0c-.3,0-1.09.15-1.91.15-2.59,0-3.49-1.2-3.49-2.78V740.2h5.29a.57.57,0,0,0,.52-.64V733.9a.58.58,0,0,0-.52-.57h-5.29v-7.05c0-.26-.19-.41-.49-.41h-7.2a.41.41,0,0,0-.45.41v7.24s-3.64.9-3.86.94a.56.56,0,0,0-.42.56v4.54a.61.61,0,0,0,.57.64h3.67v10.95c0,8.14,5.66,9,9.53,9a13.51,13.51,0,0,0,4.24-.75.56.56,0,0,0,.3-.52v-5a.6.6,0,0,0-.49-.6Zm79-7.31c0-6-2.44-6.83-5-6.57a8.36,8.36,0,0,0-3.6,1.13v11.74a8.11,8.11,0,0,0,4,1.2c3.42.07,4.54-1.17,4.54-7.5Zm8.1-.53c0,11.44-3.71,14.7-10.16,14.7a12.71,12.71,0,0,1-8.4-2.77,7,7,0,0,1-.3,1.72.52.52,0,0,1-.49.26h-4.91a.62.62,0,0,1-.64-.56l.07-37a.59.59,0,0,1,.57-.57h7.08a.59.59,0,0,1,.57.57v12.56a13.46,13.46,0,0,1,6.75-1.76l0-.08c4,0,9.9,1.5,9.9,12.94Zm-29.06-12h-7c-.37,0-.56.26-.56.64v18.11a8.32,8.32,0,0,1-4.35,1.28c-2.48,0-3.23-1.13-3.23-3.64V733.93a.57.57,0,0,0-.56-.56h-7.12a.58.58,0,0,0-.57.56V751c0,7.31,4.09,9.15,9.72,9.15a16.61,16.61,0,0,0,8.4-2.55s.19,1.31.26,1.5a.64.64,0,0,0,.53.3h4.46a.53.53,0,0,0,.56-.56l.08-24.91a.57.57,0,0,0-.6-.56Zm-79,0h-7.08a.64.64,0,0,0-.57.68v24.45c0,.68.45.9,1,.9h6.41c.67,0,.82-.3.82-.9V733.9a.64.64,0,0,0-.6-.57Zm-3.52-11.28a4.61,4.61,0,1,0,4.54,4.61,4.58,4.58,0,0,0-4.54-4.61Zm55-.83h-7.05a.57.57,0,0,0-.56.56V735.4h-11V721.78a.57.57,0,0,0-.56-.56h-7.09a.57.57,0,0,0-.56.56v37a.6.6,0,0,0,.56.56H385a.57.57,0,0,0,.56-.56V743h11l-.08,15.83a.57.57,0,0,0,.56.56h7.09a.57.57,0,0,0,.56-.56v-37a.51.51,0,0,0-.52-.56Zm-62.89,16.39v19.13c0,.11,0,.37-.19.41a20.31,20.31,0,0,1-11,3c-8.29,0-18.15-2.59-18.15-19.73s8.59-20.66,17-20.62c7.27,0,10.2,1.65,10.65,2a.93.93,0,0,1,.19.45l-1.35,6a.56.56,0,0,1-.68.56,20.11,20.11,0,0,0-7.24-1.08c-4.91,0-10.16,1.38-10.16,12.45s5,12.34,8.59,12.34a14.65,14.65,0,0,0,4.16-.38v-7.65h-4.91a.59.59,0,0,1-.64-.56v-6.15a.6.6,0,0,1,.64-.57h12.49a.56.56,0,0,1,.64.53Z" transform="translate(-235.73 -710.27)"/><path class="cls-1" d="M264.31,710.27a28.58,28.58,0,0,0-9,55.69c1.43.23,2-.6,2-1.35s0-2.92,0-5.32c-7.16,1.31-9-1.77-9.6-3.34-.34-.83-1.72-3.38-2.92-4.05-1-.53-2.44-1.88,0-1.91,2.25,0,3.86,2.06,4.39,2.92,2.58,4.31,6.67,3.11,8.32,2.36a6.08,6.08,0,0,1,1.84-3.82c-6.34-.71-13-3.19-13-14.1a11.2,11.2,0,0,1,2.92-7.69,10.25,10.25,0,0,1,.3-7.58s2.4-.75,7.88,2.93a26.39,26.39,0,0,1,14.25,0c5.47-3.71,7.84-2.93,7.84-2.93a10.47,10.47,0,0,1,.3,7.58,11,11,0,0,1,2.92,7.69c0,10.95-6.67,13.39-13.05,14.1,1.05.9,1.95,2.59,1.95,5.29,0,3.82,0,6.9,0,7.83,0,.75.53,1.65,1.95,1.35a28.57,28.57,0,0,0-9.11-55.65Z" transform="translate(-235.73 -710.27)"/></g></svg>